<svg width="144" height="179" viewBox="0 0 144 179" fill="none" xmlns="http://www.w3.org/2000/svg">
<path d="M127.429 20.5144L126.276 119.377C122.205 152.273 63.8919 178.389 63.8919 178.389C63.8919 178.389 5.56995 152.298 1.47379 119.377L0.287842 20.5144L62.6134 0L127.429 20.5144Z" fill="#FFAC30"/>
<path d="M119.295 26.7722L118.294 115.542C114.745 144.232 63.8834 167.009 63.8834 167.009C63.8834 167.009 13.0221 144.232 9.48104 115.542L8.41284 26.7722L62.7732 8.88202L119.295 26.7722Z" fill="#EDCA95"/>
<path d="M115.729 32.3739L114.787 113.868C111.422 140.783 63.774 162.114 63.774 162.114C63.774 162.114 16.0921 140.758 12.7697 113.868L11.7688 32.3739L62.7311 15.6024L115.729 32.3739Z" stroke="white" stroke-width="3" stroke-linecap="round" stroke-linejoin="round"/>
<path d="M105.098 102.695H101.784V103.536H105.098V102.695Z" fill="#FFAC30"/>
<path d="M119.338 102.695H108.529V103.536H119.338V102.695Z" fill="#FFAC30"/>
<path d="M139.12 88.3371L137.026 112.309C136.917 113.368 136.424 114.351 135.64 115.071C134.856 115.792 133.835 116.201 132.77 116.22C132.269 116.228 131.772 116.131 131.311 115.933C130.851 115.734 130.438 115.441 130.1 115.071C129.762 114.701 129.506 114.263 129.35 113.787C129.194 113.311 129.142 112.807 129.195 112.309L131.273 88.3371C131.466 86.5493 131.277 84.7407 130.719 83.0315C130.16 81.3222 129.244 79.7513 128.032 78.423C126.819 77.0946 125.339 76.0393 123.687 75.3268C122.036 74.6144 120.253 74.2613 118.454 74.2908H109.909C106.087 74.3631 102.423 75.8315 99.6096 78.4191C96.7958 81.0067 95.0262 84.5345 94.6345 88.3371L93.7934 98.1276H85.9712L86.8123 88.3371C87.8637 76.2758 98.5372 66.4685 110.59 66.4685H119.169C121.969 66.4224 124.746 66.9721 127.316 68.0813C129.887 69.1904 132.192 70.8336 134.079 72.9018C135.965 74.97 137.391 77.4159 138.26 80.0771C139.129 82.7383 139.422 85.5539 139.12 88.3371V88.3371Z" fill="#EDCA95"/>
<g opacity="0.5">
<path d="M139.149 87.8713L137.055 111.843C136.946 112.902 136.453 113.885 135.669 114.606C134.885 115.326 133.864 115.735 132.799 115.754C132.298 115.763 131.8 115.665 131.34 115.467C130.88 115.269 130.467 114.975 130.129 114.605C129.791 114.235 129.535 113.797 129.379 113.321C129.223 112.845 129.17 112.341 129.224 111.843L131.302 87.8713C131.495 86.0834 131.306 84.2749 130.747 82.5656C130.188 80.8563 129.273 79.2854 128.06 77.9571C126.848 76.6288 125.367 75.5734 123.716 74.861C122.065 74.1486 120.281 73.7954 118.483 73.8249H109.938C106.116 73.8972 102.452 75.3657 99.6383 77.9533C96.8245 80.5409 95.0549 84.0687 94.6632 87.8713L93.8221 97.6617H85.9999L86.841 87.8713C87.8924 75.8099 98.566 66.0027 110.619 66.0027H119.198C121.997 65.9565 124.774 66.5062 127.345 67.6154C129.915 68.7246 132.22 70.3678 134.107 72.436C135.994 74.5042 137.419 76.95 138.289 79.6112C139.158 82.2724 139.451 85.0881 139.149 87.8713Z" fill="white"/>
</g>
<path d="M139.684 111.434L135.604 158.148C135.456 159.597 134.782 160.941 133.709 161.925C132.637 162.909 131.24 163.466 129.784 163.489H83.0694C82.3851 163.502 81.7061 163.368 81.0775 163.098C80.4489 162.827 79.8851 162.426 79.4236 161.921C78.9621 161.416 78.6134 160.818 78.4009 160.167C78.1884 159.517 78.1168 158.829 78.191 158.148L82.2787 111.434C82.3727 110.502 82.6853 109.606 83.191 108.818C83.6967 108.031 84.3812 107.373 85.1889 106.9C86.0658 106.363 87.0711 106.073 88.0991 106.059H134.805C135.76 106.054 136.696 106.319 137.505 106.824C138.261 107.314 138.865 108.005 139.25 108.819C139.635 109.634 139.785 110.539 139.684 111.434V111.434Z" fill="#FFAC30"/>
<path d="M91.1102 131.839L103.247 150.52L143.275 110.492C143.337 110.417 143.37 110.324 143.369 110.227C143.367 110.13 143.331 110.037 143.267 109.965C143.203 109.893 143.115 109.846 143.019 109.833C142.924 109.82 142.826 109.842 142.745 109.894L104.601 139.796L97.3932 128.18L91.1102 131.839Z" fill="white"/>
</svg>
